<svg xmlns="http://www.w3.org/2000/svg" viewBox="0 0 163.57 135.35"><defs><style>.cls-1{fill:#0098ad;}.cls-2{fill:#00799c;}.cls-3{fill:#044a6f;}</style></defs><g id="Layer_2" data-name="Layer 2"><g id="Layer_1-2" data-name="Layer 1"><path class="cls-1" d="M140,15.92V130.47h23.53V7.52C157.54,11.48,149.38,14.45,140,15.92Z"/><path class="cls-2" d="M126.69,17A81.7,81.7,0,0,1,105,14.14V130.47h23.53V16.93Z"/><path class="cls-1" d="M0,7.42V130.47H23.52V15.9C14.18,14.41,6,11.41,0,7.42Z"/><path class="cls-3" d="M81.84,0C79.3,3.74,75.23,7.07,70,9.77V130.51l11.69,4.84,11.83-4.88V9.7C88.4,7,84.36,3.71,81.84,0Z"/><path class="cls-2" d="M37,17c-.67,0-1.35,0-2,0V130.47H58.54V14.18A82.5,82.5,0,0,1,37,17Z"/></g></g></svg>